<?xml version="1.0" standalone="no"?>
<svg xmlns:xlink="http://www.w3.org/1999/xlink" id="wave" style="transform:rotate(180deg); transition: 0.3s" viewBox="0 0 1440 130" version="1.1" xmlns="http://www.w3.org/2000/svg"><defs><linearGradient id="sw-gradient-0" x1="0" x2="0" y1="1" y2="0"><stop stop-color="rgba(255, 255, 255, 1)" offset="0%"/><stop stop-color="rgba(255, 255, 255, 1)" offset="100%"/></linearGradient></defs><path style="transform:translate(0, 0px); opacity:1" fill="url(#sw-gradient-0)" d="M0,104L26.7,101.8C53.3,100,107,95,160,88.8C213.3,82,267,74,320,69.3C373.3,65,427,65,480,65C533.3,65,587,65,640,71.5C693.3,78,747,91,800,82.3C853.3,74,907,43,960,41.2C1013.3,39,1067,65,1120,75.8C1173.3,87,1227,82,1280,73.7C1333.3,65,1387,52,1440,41.2C1493.3,30,1547,22,1600,34.7C1653.3,48,1707,82,1760,86.7C1813.3,91,1867,65,1920,45.5C1973.3,26,2027,13,2080,26C2133.3,39,2187,78,2240,88.8C2293.3,100,2347,82,2400,67.2C2453.3,52,2507,39,2560,41.2C2613.3,43,2667,61,2720,56.3C2773.3,52,2827,26,2880,30.3C2933.3,35,2987,69,3040,84.5C3093.3,100,3147,95,3200,80.2C3253.3,65,3307,39,3360,32.5C3413.3,26,3467,39,3520,54.2C3573.3,69,3627,87,3680,88.8C3733.3,91,3787,78,3813,71.5L3840,65L3840,130L3813.3,130C3786.7,130,3733,130,3680,130C3626.7,130,3573,130,3520,130C3466.7,130,3413,130,3360,130C3306.7,130,3253,130,3200,130C3146.7,130,3093,130,3040,130C2986.7,130,2933,130,2880,130C2826.7,130,2773,130,2720,130C2666.7,130,2613,130,2560,130C2506.7,130,2453,130,2400,130C2346.7,130,2293,130,2240,130C2186.7,130,2133,130,2080,130C2026.7,130,1973,130,1920,130C1866.7,130,1813,130,1760,130C1706.7,130,1653,130,1600,130C1546.7,130,1493,130,1440,130C1386.7,130,1333,130,1280,130C1226.7,130,1173,130,1120,130C1066.7,130,1013,130,960,130C906.7,130,853,130,800,130C746.7,130,693,130,640,130C586.7,130,533,130,480,130C426.7,130,373,130,320,130C266.7,130,213,130,160,130C106.7,130,53,130,27,130L0,130Z"/></svg>